<?xml version="1.0" encoding="utf-8"?>
<!-- Generator: Adobe Illustrator 17.1.0, SVG Export Plug-In . SVG Version: 6.00 Build 0)  -->
<!DOCTYPE svg PUBLIC "-//W3C//DTD SVG 1.1//EN" "http://www.w3.org/Graphics/SVG/1.1/DTD/svg11.dtd">
<svg version="1.1" id="Layer_1" xmlns="http://www.w3.org/2000/svg" xmlns:xlink="http://www.w3.org/1999/xlink" x="0px" y="0px"
	 viewBox="0 0 250 88" enable-background="new 0 0 250 88" xml:space="preserve">
<path d="M24.4,17.1H-0.2V0.3h68v16.8H43.3v69.2H24.4V17.1z"/>
<rect x="58.6" y="27.3" width="18.2" height="59"/>
<path d="M130.1,41.8h-16v19.7c0,1.6,0.1,3.1,0.2,4.4c0.2,1.3,0.5,2.5,1.1,3.5c0.6,1,1.4,1.7,2.6,2.2c1.2,0.5,2.7,0.8,4.7,0.8
	c1,0,2.2-0.1,3.8-0.3c1.6-0.2,2.8-0.7,3.6-1.4v15.2c-2,0.7-4.1,1.2-6.3,1.5c-2.2,0.2-4.3,0.4-6.4,0.4c-3.1,0-5.9-0.3-8.5-1
	c-2.6-0.6-4.9-1.7-6.8-3.1c-1.9-1.4-3.5-3.3-4.6-5.5c-1.1-2.3-1.6-5-1.6-8.3V41.8H84.2V27.3h11.7V9.8h18.2v17.5h16V41.8z"/>
<path d="M175.9,46.3c-0.9-1.3-2.1-2.4-3.8-3.2c-1.6-0.9-3.4-1.3-5.2-1.3c-4.6,0-8.2,1.4-10.7,4.1c-2.5,2.8-3.8,6.4-3.8,10.8
	c0,4.5,1.3,8.1,3.8,10.8c2.6,2.8,6.1,4.1,10.7,4.1c2,0,3.8-0.4,5.2-1.3c1.5-0.9,2.7-1.9,3.8-3.2l12,12.6c-2.8,2.9-6.2,5-10,6.1
	c-3.8,1.2-7.5,1.8-11,1.8c-4.5,0-8.8-0.7-12.8-2.2c-4-1.5-7.5-3.5-10.4-6.3c-3-2.7-5.3-6-7-9.8c-1.7-3.8-2.6-8.1-2.6-12.7
	s0.9-8.9,2.6-12.7c1.7-3.8,4-7.1,7-9.8c3-2.7,6.4-4.8,10.4-6.3c4-1.5,8.3-2.2,12.8-2.2c3.5,0,7.1,0.6,11,1.8c3.8,1.2,7.2,3.2,10,6.1
	L175.9,46.3z"/>
<path d="M210.9,0l0.3,35.3h0.2c0.4-1.1,1.1-2.3,2.1-3.4c1-1.1,2.1-2.1,3.5-3c1.4-0.9,3-1.6,4.9-2.2c1.9-0.6,3.9-0.9,6.1-0.9
	c4.6,0,8.3,0.7,11.2,2.1c2.8,1.4,5,3.4,6.6,5.9c1.6,2.5,2.7,5.5,3.2,8.9c0.6,3.4,0.9,7.1,0.9,11v32.5h-18.2V57.4
	c0-1.7-0.1-3.5-0.2-5.3c-0.1-1.8-0.5-3.5-1.1-5c-0.6-1.5-1.5-2.8-2.8-3.8c-1.3-1-3.1-1.5-5.4-1.5c-2.4,0-4.3,0.4-5.7,1.3
	c-1.5,0.9-2.6,2-3.3,3.4c-0.8,1.4-1.3,3-1.5,4.8c-0.2,1.8-0.4,3.6-0.4,5.6v29.4H193L192.7,0H210.9z"/>
</svg>
